<svg width="56" height="45" viewBox="0 0 56 45" fill="none" xmlns="http://www.w3.org/2000/svg">
<path d="M54.3351 1.42572C54.2313 1.16319 53.9923 0.978464 53.7121 0.944189C53.4326 0.910041 53.1556 1.03174 52.9916 1.26153C52.0184 2.62601 50.7414 3.08084 49.262 3.60756C48.0691 4.03247 46.8356 4.47151 45.5024 5.42867C43.617 6.78224 42.7546 8.62736 43.1846 10.3762L43.1387 10.4351C42.3514 9.29297 41.4947 8.23659 40.5907 7.2933C36.3612 2.88007 30.4513 0.226836 24.3757 0.0141212C24.1081 0.00474991 23.836 0 23.5672 0C16.7832 0 10.2898 3.0327 5.75215 8.32029C1.23827 13.5805 -0.76243 20.4281 0.263276 27.1073C0.34903 27.6656 0.45635 28.2296 0.582541 28.7842C2.25089 36.1274 6.512 41.7136 12.2734 44.1099C13.6936 44.7006 15.1261 45 16.5307 45C20.0203 45 23.0682 43.1336 24.8933 39.8793C25.587 38.641 26.0347 37.3605 26.2233 36.0729C26.3344 35.3129 26.2584 34.5536 26.1848 33.8177C26.1089 33.0603 26.0373 32.3445 26.1519 31.6238C26.4147 29.9718 27.5686 28.9854 29.2389 28.9854C29.714 28.9854 30.1995 29.0636 30.6844 29.218C30.1167 30.2591 29.6012 31.2532 29.1507 32.1747C28.196 34.1275 27.5374 35.7448 27.1927 36.981C26.9803 37.7434 26.4158 39.7695 27.7923 40.7249C28.2294 41.0282 28.7836 41.1353 29.3603 41.028C29.8801 40.9315 31.4617 40.6376 35.9559 35.5213C37.1621 34.1483 38.4619 32.5594 39.8205 30.7979C43.3081 29.6233 46.0222 26.7001 46.7402 23.341C46.9199 22.5013 46.9949 21.6027 46.9629 20.6693C48.2688 18.6513 49.4141 16.7683 50.5667 14.7441C50.5887 14.7051 50.6105 14.6635 50.6321 14.6209C52.305 14.1627 53.7457 12.8609 54.5914 11.0404C55.8261 8.38345 55.7351 4.96871 54.3351 1.42572ZM35.4806 14.007C34.8755 14.9679 33.8356 15.5416 32.6983 15.5416C32.0808 15.5416 31.4768 15.3668 30.9518 15.0362C30.2095 14.5686 29.6933 13.8401 29.4991 12.9847C29.3049 12.1294 29.4548 11.2494 29.9225 10.507C30.5276 9.54613 31.5677 8.97242 32.705 8.97242C33.3226 8.97242 33.9265 9.14714 34.4514 9.47796C35.1936 9.94524 35.7097 10.6738 35.9041 11.5292C36.0983 12.3847 35.948 13.2646 35.4806 14.007ZM39.7435 19.9575C41.4038 17.5111 43.1597 15.0793 44.8276 12.9162C45.0979 13.1604 45.4002 13.3989 45.7277 13.6261C46.2704 14.0026 46.8379 14.2938 47.4176 14.4931C46.0095 16.9012 44.4955 19.2869 42.6623 21.987C39.6503 26.425 36.5185 30.5474 33.8437 33.595C32.3496 35.2973 31.0422 36.6115 30.0347 37.4256C30.4235 36.1816 31.1667 34.4744 32.201 32.4516C34.0505 28.8344 36.7291 24.3973 39.7435 19.9575ZM10.5916 19.9364C9.97398 19.9364 9.36998 19.7617 8.8448 19.4309C8.10255 18.9635 7.58661 18.2352 7.39225 17.3796C7.1979 16.5241 7.34835 15.6441 7.81602 14.9018C8.42078 13.941 9.46087 13.3673 10.598 13.3673C11.2157 13.3673 11.8197 13.542 12.3448 13.8728C13.8771 14.8379 14.3387 16.8697 13.3742 18.4017C12.7688 19.3627 11.7286 19.9364 10.5916 19.9364ZM7.14886 27.1684C7.75388 26.2074 8.79384 25.6337 9.9311 25.6337C10.5486 25.6337 11.1524 25.8085 11.6778 26.1392C12.42 26.6066 12.9359 27.335 13.1303 28.1905C13.3248 29.0457 13.1743 29.9256 12.7065 30.6682C12.1018 31.6288 11.0617 32.2027 9.92455 32.2027C9.30695 32.2027 8.70282 32.028 8.17752 31.6971C7.43526 31.2296 6.91945 30.5013 6.72522 29.6459C6.53112 28.7906 6.68171 27.9106 7.14886 27.1684ZM17.6668 7.66276C18.2718 6.70188 19.3119 6.12818 20.449 6.12818C21.0664 6.12818 21.6704 6.30289 22.1954 6.63358C23.7278 7.59844 24.1894 9.63034 23.2248 11.1626C22.6196 12.1236 21.5795 12.6973 20.4423 12.6973C19.8249 12.6973 19.2209 12.5226 18.6958 12.1918C17.9537 11.7245 17.4379 10.9961 17.2435 10.1405C17.0489 9.28514 17.1994 8.40527 17.6668 7.66276Z" fill="white"/>
</svg>
