<svg width="45" height="45" viewBox="0 0 45 45" fill="none" xmlns="http://www.w3.org/2000/svg">
<g opacity="0.9" clip-path="url(#clip0_55_106)">
<path d="M6.67969 21.0938C7.7433 21.0938 8.70598 20.667 9.41734 19.9817L13.3199 21.9328C13.3003 22.0918 13.2715 22.248 13.2715 22.4121C13.2715 24.5929 15.0458 26.3672 17.2266 26.3672C19.4073 26.3672 21.1816 24.5929 21.1816 22.4121C21.1816 21.8034 21.032 21.2335 20.7851 20.7178L26.0791 15.4238C26.5948 15.6706 27.1647 15.8203 27.7734 15.8203C29.9542 15.8203 31.7285 14.046 31.7285 11.8652C31.7285 11.4546 31.6478 11.0663 31.5311 10.6938L36.1309 7.2448C36.7585 7.66399 37.5108 7.91016 38.3203 7.91016C40.5011 7.91016 42.2754 6.13586 42.2754 3.95508C42.2754 1.77429 40.5011 0 38.3203 0C36.1395 0 34.3652 1.77429 34.3652 3.95508C34.3652 4.36569 34.4459 4.75399 34.5626 5.1265L29.9628 8.57552C29.3352 8.15632 28.583 7.91016 27.7734 7.91016C25.5927 7.91016 23.8184 9.68445 23.8184 11.8652C23.8184 12.4739 23.968 13.0439 24.2149 13.5595L18.9209 18.8536C18.4052 18.6067 17.8353 18.457 17.2266 18.457C16.1629 18.457 15.2003 18.8838 14.4889 19.5691L10.5864 17.618C10.6059 17.459 10.6348 17.3028 10.6348 17.1387C10.6348 14.9579 8.86047 13.1836 6.67969 13.1836C4.4989 13.1836 2.72461 14.9579 2.72461 17.1387C2.72461 19.3195 4.4989 21.0938 6.67969 21.0938Z" fill="white"/>
<path d="M43.6816 42.3633H42.2754V14.502C42.2754 13.7734 41.6856 13.1836 40.957 13.1836H35.6836C34.9551 13.1836 34.3652 13.7734 34.3652 14.502V42.3633H31.7285V22.4121C31.7285 21.6836 31.1387 21.0938 30.4102 21.0938H25.1367C24.4082 21.0938 23.8184 21.6836 23.8184 22.4121V42.3633H21.1816V32.959C21.1816 32.2305 20.5918 31.6406 19.8633 31.6406H14.5898C13.8613 31.6406 13.2715 32.2305 13.2715 32.959V42.3633H10.6348V27.6855C10.6348 26.957 10.0449 26.3672 9.31641 26.3672H4.04297C3.31444 26.3672 2.72461 26.957 2.72461 27.6855V42.3633H1.31836C0.589829 42.3633 0 42.9531 0 43.6816C0 44.4102 0.589829 45 1.31836 45H43.6816C44.4102 45 45 44.4102 45 43.6816C45 42.9531 44.4102 42.3633 43.6816 42.3633Z" fill="white"/>
</g>
<defs>
<clipPath id="clip0_55_106">
<rect width="45" height="45" fill="white"/>
</clipPath>
</defs>
</svg>
