<svg width="15" height="15" viewBox="0 0 15 15" fill="none" xmlns="http://www.w3.org/2000/svg">
<g clip-path="url(#clip0_245_122)">
<path d="M3.59375 14.8437C3.335 14.8437 3.125 14.6337 3.125 14.375V11.4256C3.125 10.5856 3.48313 9.78125 4.1075 9.21875L5.11438 8.3125C5.34875 8.10312 5.47688 7.81375 5.47688 7.5C5.47688 7.18625 5.34875 6.89687 5.115 6.68687L4.1075 5.78125C3.48313 5.21875 3.125 4.41437 3.125 3.57437V0.625C3.125 0.36625 3.335 0.15625 3.59375 0.15625C3.8525 0.15625 4.0625 0.36625 4.0625 0.625V3.57437C4.0625 4.14875 4.30813 4.69937 4.735 5.08437L5.74188 5.99062C6.16938 6.375 6.41438 6.925 6.41438 7.5C6.41438 8.075 6.16938 8.625 5.7425 9.01L4.73563 9.91625C4.30813 10.3006 4.0625 10.8512 4.0625 11.4256V14.375C4.0625 14.6337 3.8525 14.8437 3.59375 14.8437Z" fill="#30E0A8"/>
<path d="M11.4061 14.8437C11.1473 14.8437 10.9373 14.6337 10.9373 14.375V11.4256C10.9373 10.8512 10.6917 10.3006 10.2648 9.91562L9.25795 9.00937C8.83045 8.625 8.58545 8.075 8.58545 7.5C8.58545 6.925 8.83045 6.375 9.25732 5.99L10.2642 5.08375C10.6917 4.69937 10.9373 4.14875 10.9373 3.57437V0.625C10.9373 0.36625 11.1473 0.15625 11.4061 0.15625C11.6648 0.15625 11.8748 0.36625 11.8748 0.625V3.57437C11.8748 4.41437 11.5167 5.21875 10.8923 5.78125L9.88545 6.6875C9.6517 6.8975 9.52357 7.18625 9.52357 7.50062C9.52357 7.815 9.6517 8.10375 9.88545 8.31375L10.8923 9.22C11.5167 9.78125 11.8748 10.5856 11.8748 11.4256V14.375C11.8748 14.6337 11.6648 14.8437 11.4061 14.8437Z" fill="#30E0A8"/>
<path d="M12.6562 0.9375H2.34375C2.085 0.9375 1.875 0.7275 1.875 0.46875C1.875 0.21 2.085 0 2.34375 0H12.6562C12.915 0 13.125 0.21 13.125 0.46875C13.125 0.7275 12.915 0.9375 12.6562 0.9375Z" fill="#30E0A8"/>
<path d="M12.6562 15H2.34375C2.085 15 1.875 14.79 1.875 14.5312C1.875 14.2725 2.085 14.0625 2.34375 14.0625H12.6562C12.915 14.0625 13.125 14.2725 13.125 14.5312C13.125 14.79 12.915 15 12.6562 15Z" fill="#30E0A8"/>
</g>
<defs>
<clipPath id="clip0_245_122">
<rect width="15" height="15" fill="white"/>
</clipPath>
</defs>
</svg>
