<svg width="86" height="85" viewBox="0 0 86 85" fill="none" xmlns="http://www.w3.org/2000/svg">
<g filter="url(#filter0_d_194_5)">
<path d="M42.616 74.0155C60.6261 74.0155 75.2262 59.6852 75.2262 42.0078C75.2262 24.3304 60.6261 10 42.616 10C24.6059 10 10.0059 24.3304 10.0059 42.0078C10.0059 59.6852 24.6059 74.0155 42.616 74.0155Z" fill="#21A279"/>
</g>
<path d="M18.2351 20.2441H70.4728C73.9914 20.2441 76.9686 23.0084 76.9686 26.5623V58.5484C76.9686 61.9708 74.1266 64.8666 70.4728 64.8666H46.5191L20.4004 78.2929V64.8666H18.2351C14.7165 64.8666 11.7393 62.1023 11.7393 58.5484V26.5623C11.7391 23.0083 14.5811 20.2441 18.2351 20.2441Z" fill="white"/>
<path d="M19.4438 79.8461C19.0333 79.5796 18.7596 79.1798 18.7596 78.6466V66.3846H17.9384C13.5586 66.3846 10 62.9193 10 58.6543V26.2669C10 22.0019 13.5586 18.5366 17.9384 18.5366H70.7699C75.1497 18.5366 78.7083 22.0019 78.7083 26.2669V58.6543C78.7083 62.9193 75.1497 66.3846 70.7699 66.3846H46.8178L20.6758 79.8461C20.265 80.1128 19.8544 79.9794 19.4438 79.8461ZM17.9384 21.2023C15.0641 21.2023 12.7374 23.4681 12.7374 26.2669V58.6543C12.7374 61.4533 15.0642 63.719 17.9384 63.719H20.1283C20.9495 63.719 21.497 64.2521 21.497 65.0518V76.5141L45.9966 63.8523C46.1335 63.719 46.4072 63.719 46.6809 63.719H70.9068C73.7812 63.719 76.1078 61.4531 76.1078 58.6543V26.2669C76.1078 23.4679 73.781 21.2023 70.9068 21.2023H17.9384Z" fill="#183651"/>
<path d="M25.6811 59.6853H18.0485C17.5032 59.6853 16.958 59.1553 16.958 58.6252V26.4259C16.958 25.8958 17.5032 25.3657 18.0485 25.3657H70.6602C71.2054 25.3657 71.7507 25.8958 71.7507 26.4259V58.6252C71.7507 59.1553 71.2054 59.6853 70.6602 59.6853H45.172L25.6811 69.756V59.6853Z" fill="#2AA0DA"/>
<path d="M46.819 46.6252H43.4368V44.9541C43.4368 44.3275 43.4368 43.701 43.6624 43.283C43.888 42.8654 44.3388 42.4475 44.7897 41.8209L46.819 39.9411C47.2699 39.5235 47.4954 38.8969 47.4954 38.27C47.4954 37.6432 47.2699 37.0168 46.819 36.5989C46.3681 36.1813 45.6917 35.9723 45.015 35.9723C44.3385 35.9723 43.6621 36.1813 43.2109 36.5989C42.7601 37.0166 42.5345 37.6432 42.3089 38.27H38.7012C38.9267 36.5989 39.6032 35.3458 40.7305 34.5105C41.8578 33.6749 43.4362 33.0483 45.0147 33.0483C46.8187 33.0483 48.1716 33.466 49.2989 34.3015C50.4262 35.1371 50.8773 36.3903 50.8773 37.8524C50.8773 38.8966 50.6517 39.7322 49.9753 40.5677C49.5244 40.9854 49.2989 41.4033 49.0733 41.4033C48.8477 41.6122 48.6224 41.8209 48.3969 42.0299C48.1713 42.2388 47.7204 42.4475 47.4949 42.6565C47.2693 42.8654 47.044 43.0741 47.044 43.283C46.5931 43.7007 46.5931 44.3273 46.5931 44.9541V46.6252H46.819ZM45.2405 52.6825C44.5641 52.6825 44.1132 52.4735 43.6621 52.0559C43.2112 51.6382 42.9857 51.2203 42.9857 50.5937C42.9857 49.9672 43.2112 49.5495 43.6621 49.1316C44.113 48.714 44.5641 48.505 45.2405 48.505C45.917 48.505 46.3678 48.714 46.819 49.1316C47.2699 49.5492 47.4954 49.9672 47.4954 50.5937C47.4954 51.2203 47.2699 51.638 46.819 52.0559C46.3678 52.4735 45.6914 52.6825 45.2405 52.6825Z" fill="white"/>
<defs>
<filter id="filter0_d_194_5" x="0.00585938" y="0" width="85.2202" height="84.0156" filterUnits="userSpaceOnUse" color-interpolation-filters="sRGB">
<feFlood flood-opacity="0" result="BackgroundImageFix"/>
<feColorMatrix in="SourceAlpha" type="matrix" values="0 0 0 0 0 0 0 0 0 0 0 0 0 0 0 0 0 0 127 0" result="hardAlpha"/>
<feOffset/>
<feGaussianBlur stdDeviation="5"/>
<feColorMatrix type="matrix" values="0 0 0 0 0.14902 0 0 0 0 0.196078 0 0 0 0 0.219608 0 0 0 0.15 0"/>
<feBlend mode="normal" in2="BackgroundImageFix" result="effect1_dropShadow_194_5"/>
<feBlend mode="normal" in="SourceGraphic" in2="effect1_dropShadow_194_5" result="shape"/>
</filter>
</defs>
</svg>
