<svg width="50" height="50" viewBox="0 0 50 50" fill="none" xmlns="http://www.w3.org/2000/svg">
<g opacity="0.9">
<path d="M28.0112 9.02857C29.6746 9.02857 31.023 7.68018 31.023 6.01685C31.023 4.35352 29.6746 3.00513 28.0112 3.00513C26.3479 3.00513 24.9995 4.35352 24.9995 6.01685C24.9995 7.68018 26.3479 9.02857 28.0112 9.02857Z" fill="white"/>
<path d="M34.0357 4.8195C35.3666 4.8195 36.4455 3.74062 36.4455 2.40975C36.4455 1.07888 35.3666 0 34.0357 0C32.7049 0 31.626 1.07888 31.626 2.40975C31.626 3.74062 32.7049 4.8195 34.0357 4.8195Z" fill="white"/>
<path d="M44.1563 41.1129L31.6258 21.0773V15.0603H35.2404V10.8438H14.7584V15.0603H18.3731V21.0773L5.84254 41.1129C5.38314 41.9646 5.12036 42.9384 5.12036 43.9755C5.12036 47.3022 7.81712 49.9999 11.1447 49.9999H38.855C42.1817 49.9999 44.8794 47.3031 44.8794 43.9755C44.8794 42.9384 44.6166 41.9646 44.1563 41.1129ZM15.435 33.7271L22.5897 22.2868V15.0594H27.4092V22.2868L34.5639 33.7271H15.435Z" fill="white"/>
</g>
</svg>
